<svg width="615.6px" height="122px" xmlns="http://www.w3.org/2000/svg" viewBox="-57.796856689453136 14 615.5937133789063 122" style="background: rgba(0, 0, 0, 0)" preserveAspectRatio="xMidYMid"><defs><filter id="editing-extrude-glow"><feFlood flood-color="#333333" result="flood-1"></feFlood><feMorphology operator="erode" radius="1" in="SourceAlpha" result="erode"></feMorphology><feComposite operator="in" in="flood-1" in2="erode" result="comp1"></feComposite><feConvolveMatrix order="3,3" divisor="1" in="comp1" result="convolve" kernelMatrix="0 0 0 1 1 1 0 0 0"></feConvolveMatrix><feOffset dx="-3" dy="0" in="convolve" result="extrude"></feOffset><feComposite operator="in" in="flood-1" in2="extrude" result="comp-extrude"></feComposite><feFlood flood-color="#000000" result="flood-2"></feFlood><feComposite operator="in" in="flood-2" in2="SourceAlpha" result="comp2"></feComposite><feMorphology operator="dilate" radius="1" in="comp2" result="dilate"></feMorphology><feOffset dx="-4.5" dy="0" in="dilate" result="offset"></feOffset><feGaussianBlur in="offset" stdDeviation="5.8" result="blur"></feGaussianBlur><feComponentTransfer in="blur" result="shadow"><feFuncA type="linear" slope="0.8" intercept="-0.2"></feFuncA></feComponentTransfer><feMerge><feMergeNode in="shadow"></feMergeNode><feMergeNode in="comp-extrude"></feMergeNode><feMergeNode in="SourceGraphic"></feMergeNode></feMerge></filter></defs><g filter="url(#editing-extrude-glow)"><g transform="matrix(1.3,0,0,1.7,-16.2,213.5)"><path d="M -14.1 -68.6 L -28.1 -68.6 L -20 -110.8 L -5.9 -110.8 L -14.1 -68.6 Z M 41.6 -67.3 L 41.6 -67.3 L 41.6 -67.3 Q 33.9 -67.3 33.9 -73.3 L 33.9 -73.3 L 33.9 -73.3 Q 33.9 -76 35 -81 L 35 -81 L 35 -81 Q 36.1 -86.1 36.5 -88.2 L 36.5 -88.2 L 36.5 -88.2 Q 37.4 -92.9 37.4 -94.3 L 37.4 -94.3 L 37.4 -94.3 Q 37.4 -97.6 35 -97.6 L 35 -97.6 L 35 -97.6 Q 33.4 -97.6 31.8 -95.4 L 31.8 -95.4 L 31.8 -95.4 Q 30.3 -93.2 29.6 -88.8 L 29.6 -88.8 L 25.6 -68.6 L 13.1 -67.3 L 16.6 -84.7 L 16.6 -84.7 Q 17.2 -87.6 17.7 -90.9 L 17.7 -90.9 L 17.7 -90.9 Q 18.2 -94.1 18.2 -94.6 L 18.2 -94.6 L 18.2 -94.6 Q 18.2 -97.6 16 -97.6 L 16 -97.6 L 16 -97.6 Q 14.5 -97.6 12.9 -95.4 L 12.9 -95.4 L 12.9 -95.4 Q 11.3 -93.2 10.4 -88.8 L 10.4 -88.8 L 6.5 -68.6 L -6.1 -67.3 L 0.7 -101.2 L 11.1 -102.5 L 10 -96.1 L 10 -96.1 Q 11.7 -99.5 14.7 -101 L 14.7 -101 L 14.7 -101 Q 17.8 -102.5 22.6 -102.5 L 22.6 -102.5 L 22.6 -102.5 Q 25.4 -102.5 27.2 -101.2 L 27.2 -101.2 L 27.2 -101.2 Q 28.9 -99.8 29.5 -97.7 L 29.5 -97.7 L 29.5 -97.7 Q 30.6 -99.9 33.4 -101.2 L 33.4 -101.2 L 33.4 -101.2 Q 36.2 -102.5 39.6 -102.5 L 39.6 -102.5 L 39.6 -102.5 Q 43 -102.5 44.7 -101.8 L 44.7 -101.8 L 44.7 -101.8 Q 46.4 -101 47.4 -99.8 L 47.4 -99.8 L 47.4 -99.8 Q 49.2 -97.6 49.2 -93.5 L 49.2 -93.5 L 49.2 -93.5 Q 49.2 -89.5 47.4 -81.1 L 47.4 -81.1 L 47.4 -81.1 Q 46.5 -77 46.5 -75.5 L 46.5 -75.5 L 46.5 -75.5 Q 46.5 -74 47.4 -73.1 L 47.4 -73.1 L 47.4 -73.1 Q 48.3 -72.2 49.6 -72.1 L 49.6 -72.1 L 49.6 -72.1 Q 48.9 -69.9 46.7 -68.6 L 46.7 -68.6 L 46.7 -68.6 Q 44.5 -67.3 41.6 -67.3 Z M 57.3 -70.5 L 57.3 -70.5 L 57.3 -70.5 Q 55.8 -72.2 55.1 -74.8 L 55.1 -74.8 L 55.1 -74.8 Q 54.4 -77.4 54.4 -81.7 L 54.4 -81.7 L 54.4 -81.7 Q 54.4 -86 55.9 -89.9 L 55.9 -89.9 L 55.9 -89.9 Q 57.4 -93.8 60 -96.6 L 60 -96.6 L 60 -96.6 Q 65.6 -102.5 74.6 -102.5 L 74.6 -102.5 L 74.6 -102.5 Q 77.9 -102.5 80.3 -101.4 L 80.3 -101.4 L 91.2 -102.5 L 86.5 -77.6 L 86.5 -77.6 Q 86.3 -76.8 86.3 -75.4 L 86.3 -75.4 L 86.3 -75.4 Q 86.3 -74 87.2 -73.1 L 87.2 -73.1 L 87.2 -73.1 Q 88 -72.2 89.3 -72.1 L 89.3 -72.1 L 89.3 -72.1 Q 88.7 -69.9 86.3 -68.6 L 86.3 -68.6 L 86.3 -68.6 Q 84 -67.3 81.4 -67.3 L 81.4 -67.3 L 81.4 -67.3 Q 78.7 -67.3 77 -68.3 L 77 -68.3 L 77 -68.3 Q 75.2 -69.3 74.7 -71 L 74.7 -71 L 74.7 -71 Q 73.7 -69.4 71.5 -68.3 L 71.5 -68.3 L 71.5 -68.3 Q 69.3 -67.3 66.4 -67.3 L 66.4 -67.3 L 66.4 -67.3 Q 63.5 -67.3 61.1 -68.1 L 61.1 -68.1 L 61.1 -68.1 Q 58.8 -68.9 57.3 -70.5 Z M 70.8 -96.5 L 70.8 -96.5 L 70.8 -96.5 Q 70 -95.3 69.4 -93.4 L 69.4 -93.4 L 69.4 -93.4 Q 68.8 -91.4 67.7 -86.2 L 67.7 -86.2 L 67.7 -86.2 Q 66.6 -81 66.6 -77.3 L 66.6 -77.3 L 66.6 -77.3 Q 66.6 -73.6 67.2 -72.5 L 67.2 -72.5 L 67.2 -72.5 Q 67.8 -71.4 68.8 -71.4 L 68.8 -71.4 L 68.8 -71.4 Q 70.9 -71.4 72.4 -73.4 L 72.4 -73.4 L 72.4 -73.4 Q 73.9 -75.3 74.4 -78.8 L 74.4 -78.8 L 77.8 -97.5 L 77.8 -97.5 Q 76.5 -98.7 74.9 -98.7 L 74.9 -98.7 L 74.9 -98.7 Q 73.4 -98.7 72.4 -98.2 L 72.4 -98.2 L 72.4 -98.2 Q 71.5 -97.7 70.8 -96.5 Z M 99 -95.3 L 99 -95.3 L 99 -95.3 Q 101.1 -98.4 104.4 -100.5 L 104.4 -100.5 L 104.4 -100.5 Q 107.7 -102.5 111.8 -102.5 L 111.8 -102.5 L 111.8 -102.5 Q 115.8 -102.5 117.7 -101.2 L 117.7 -101.2 L 130.3 -102.5 L 125.9 -77.9 L 125.9 -77.9 Q 123.7 -65.4 118.9 -60.5 L 118.9 -60.5 L 118.9 -60.5 Q 114.4 -55.8 105.6 -55.8 L 105.6 -55.8 L 105.6 -55.8 Q 98.8 -55.8 95 -57.9 L 95 -57.9 L 95 -57.9 Q 91.2 -60 91.2 -63.5 L 91.2 -63.5 L 91.2 -63.5 Q 91.2 -66.2 93.1 -67.7 L 93.1 -67.7 L 93.1 -67.7 Q 95.1 -69.2 98.2 -69.2 L 98.2 -69.2 L 98.2 -69.2 Q 100.9 -69.2 102.9 -68 L 102.9 -68 L 102.9 -68 Q 104.1 -67.3 104.7 -66.4 L 104.7 -66.4 L 104.7 -66.4 Q 103.2 -65.1 103.2 -63 L 103.2 -63 L 103.2 -63 Q 103.2 -60.3 105.8 -60.3 L 105.8 -60.3 L 105.8 -60.3 Q 110.1 -60.3 112.5 -70.4 L 112.5 -70.4 L 112.5 -70.4 Q 113.2 -73.1 113.8 -75.9 L 113.8 -75.9 L 113.8 -75.9 Q 110.9 -72.4 104.4 -72.4 L 104.4 -72.4 L 104.4 -72.4 Q 99.9 -72.4 97.2 -74.5 L 97.2 -74.5 L 97.2 -74.5 Q 94.6 -76.7 94.6 -81.8 L 94.6 -81.8 L 94.6 -81.8 Q 94.6 -85 95.7 -88.7 L 95.7 -88.7 L 95.7 -88.7 Q 96.8 -92.3 99 -95.3 Z M 107.3 -81.7 L 107.3 -81.7 L 107.3 -81.7 Q 107.3 -77.3 109.5 -77.3 L 109.5 -77.3 L 109.5 -77.3 Q 111.1 -77.3 112.5 -79 L 112.5 -79 L 112.5 -79 Q 113.7 -80.3 114.1 -82.3 L 114.1 -82.3 L 117.4 -98.7 L 117.4 -98.7 Q 117.1 -98.8 116.8 -98.9 L 116.8 -98.9 L 116.8 -98.9 Q 116.1 -99.2 115.3 -99.2 L 115.3 -99.2 L 115.3 -99.2 Q 111.4 -99.2 109.1 -92.8 L 109.1 -92.8 L 109.1 -92.8 Q 107.3 -87.8 107.3 -81.7 Z M 158.7 -79.4 L 158.7 -79.4 L 158.7 -79.4 Q 160.3 -78.3 160.3 -75.9 L 160.3 -75.9 L 160.3 -75.9 Q 160.3 -73.5 159.1 -72 L 159.1 -72 L 159.1 -72 Q 157.8 -70.5 155.9 -69.4 L 155.9 -69.4 L 155.9 -69.4 Q 151.8 -67.3 147.3 -67.3 L 147.3 -67.3 L 147.3 -67.3 Q 142.9 -67.3 140.3 -68.3 L 140.3 -68.3 L 140.3 -68.3 Q 137.7 -69.2 136 -71 L 136 -71 L 136 -71 Q 132.6 -74.4 132.6 -80.6 L 132.6 -80.6 L 132.6 -80.6 Q 132.6 -90.3 137.9 -96.2 L 137.9 -96.2 L 137.9 -96.2 Q 143.5 -102.5 153.3 -102.5 L 153.3 -102.5 L 153.3 -102.5 Q 159.4 -102.5 162.4 -100 L 162.4 -100 L 162.4 -100 Q 164.6 -98 164.6 -94.9 L 164.6 -94.9 L 164.6 -94.9 Q 164.6 -83.6 145.2 -83.6 L 145.2 -83.6 L 145.2 -83.6 Q 144.9 -82 144.9 -80.6 L 144.9 -80.6 L 144.9 -80.6 Q 144.9 -77.6 146.2 -76.5 L 146.2 -76.5 L 146.2 -76.5 Q 147.5 -75.4 150 -75.4 L 150 -75.4 L 150 -75.4 Q 152.4 -75.4 155 -76.5 L 155 -76.5 L 155 -76.5 Q 157.6 -77.6 158.7 -79.4 Z M 145.6 -86.4 L 145.6 -86.4 L 145.6 -86.4 Q 150.2 -86.4 152.8 -89.2 L 152.8 -89.2 L 152.8 -89.2 Q 155.4 -91.9 155.4 -96.2 L 155.4 -96.2 L 155.4 -96.2 Q 155.4 -97.7 154.9 -98.5 L 154.9 -98.5 L 154.9 -98.5 Q 154.3 -99.3 153.2 -99.3 L 153.2 -99.3 L 153.2 -99.3 Q 152.1 -99.3 151.2 -98.8 L 151.2 -98.8 L 151.2 -98.8 Q 150.3 -98.4 149.3 -97 L 149.3 -97 L 149.3 -97 Q 147 -93.8 145.6 -86.4 Z M 205.9 -89.2 L 218.8 -90.4 L 218.8 -90.4 Q 214.2 -80.2 214.2 -68.5 L 214.2 -68.5 L 214.2 -68.5 Q 212.5 -67.3 210 -67.3 L 210 -67.3 L 210 -67.3 Q 207.4 -67.3 205.8 -68.5 L 205.8 -68.5 L 205.8 -68.5 Q 204.2 -69.7 203.9 -70.9 L 203.9 -70.9 L 203.9 -70.9 Q 202.3 -69.2 199.7 -68.3 L 199.7 -68.3 L 199.7 -68.3 Q 197.1 -67.3 194.4 -67.3 L 194.4 -67.3 L 194.4 -67.3 Q 191.6 -67.3 189.2 -68.2 L 189.2 -68.2 L 189.2 -68.2 Q 186.8 -69.1 185 -71.1 L 185 -71.1 L 185 -71.1 Q 180.9 -75.4 180.9 -83.7 L 180.9 -83.7 L 180.9 -83.7 Q 180.9 -96.5 187.7 -104.2 L 187.7 -104.2 L 187.7 -104.2 Q 194.8 -112.1 207.2 -112.1 L 207.2 -112.1 L 207.2 -112.1 Q 215.9 -112.1 219 -107.6 L 219 -107.6 L 219 -107.6 Q 219.9 -106.2 219.9 -104.5 L 219.9 -104.5 L 219.9 -104.5 Q 219.9 -102.8 219.2 -101.4 L 219.2 -101.4 L 219.2 -101.4 Q 218.4 -100 217.3 -98.8 L 217.3 -98.8 L 217.3 -98.8 Q 214.5 -96.2 211.2 -96.2 L 211.2 -96.2 L 211.2 -96.2 Q 209.8 -96.2 208.5 -96.7 L 208.5 -96.7 L 208.5 -96.7 Q 208.8 -98.6 208.8 -100.9 L 208.8 -100.9 L 208.8 -100.9 Q 208.8 -103.1 208.6 -104.1 L 208.6 -104.1 L 208.6 -104.1 Q 208.5 -105.1 208.1 -106 L 208.1 -106 L 208.1 -106 Q 207.2 -107.7 205.4 -107.7 L 205.4 -107.7 L 205.4 -107.7 Q 203.6 -107.7 201.6 -105.7 L 201.6 -105.7 L 201.6 -105.7 Q 199.6 -103.8 198 -100.6 L 198 -100.6 L 198 -100.6 Q 194.4 -93.4 194.4 -84.8 L 194.4 -84.8 L 194.4 -84.8 Q 194.4 -80.8 196 -78 L 196 -78 L 196 -78 Q 197.6 -74.9 200.6 -74.9 L 200.6 -74.9 L 200.6 -74.9 Q 201.6 -74.9 202.5 -75.4 L 202.5 -75.4 L 202.5 -75.4 Q 203.5 -76 203.9 -76.3 L 203.9 -76.3 L 205.9 -89.2 Z M 224.8 -70.5 L 224.8 -70.5 L 224.8 -70.5 Q 223.2 -72.2 222.6 -74.8 L 222.6 -74.8 L 222.6 -74.8 Q 221.9 -77.4 221.9 -81.7 L 221.9 -81.7 L 221.9 -81.7 Q 221.9 -86 223.4 -89.9 L 223.4 -89.9 L 223.4 -89.9 Q 224.8 -93.8 227.5 -96.6 L 227.5 -96.6 L 227.5 -96.6 Q 233 -102.5 242.1 -102.5 L 242.1 -102.5 L 242.1 -102.5 Q 245.4 -102.5 247.8 -101.4 L 247.8 -101.4 L 258.7 -102.5 L 254 -77.6 L 254 -77.6 Q 253.8 -76.8 253.8 -75.4 L 253.8 -75.4 L 253.8 -75.4 Q 253.8 -74 254.6 -73.1 L 254.6 -73.1 L 254.6 -73.1 Q 255.5 -72.2 256.8 -72.1 L 256.8 -72.1 L 256.8 -72.1 Q 256.1 -69.9 253.8 -68.6 L 253.8 -68.6 L 253.8 -68.6 Q 251.5 -67.3 248.8 -67.3 L 248.8 -67.3 L 248.8 -67.3 Q 246.2 -67.3 244.5 -68.3 L 244.5 -68.3 L 244.5 -68.3 Q 242.7 -69.3 242.2 -71 L 242.2 -71 L 242.2 -71 Q 241.2 -69.4 239 -68.3 L 239 -68.3 L 239 -68.3 Q 236.8 -67.3 233.9 -67.3 L 233.9 -67.3 L 233.9 -67.3 Q 231 -67.3 228.6 -68.1 L 228.6 -68.1 L 228.6 -68.1 Q 226.3 -68.9 224.8 -70.5 Z M 238.3 -96.5 L 238.3 -96.5 L 238.3 -96.5 Q 237.5 -95.3 236.9 -93.4 L 236.9 -93.4 L 236.9 -93.4 Q 236.2 -91.4 235.2 -86.2 L 235.2 -86.2 L 235.2 -86.2 Q 234.1 -81 234.1 -77.3 L 234.1 -77.3 L 234.1 -77.3 Q 234.1 -73.6 234.7 -72.5 L 234.7 -72.5 L 234.7 -72.5 Q 235.3 -71.4 236.3 -71.4 L 236.3 -71.4 L 236.3 -71.4 Q 238.4 -71.4 239.9 -73.4 L 239.9 -73.4 L 239.9 -73.4 Q 241.4 -75.3 241.9 -78.8 L 241.9 -78.8 L 245.3 -97.5 L 245.3 -97.5 Q 244 -98.7 242.4 -98.7 L 242.4 -98.7 L 242.4 -98.7 Q 240.8 -98.7 239.9 -98.2 L 239.9 -98.2 L 239.9 -98.2 Q 239 -97.7 238.3 -96.5 Z M 277.5 -72.1 L 277.5 -72.1 L 277.5 -72.1 Q 275.5 -67.3 269.1 -67.3 L 269.1 -67.3 L 269.1 -67.3 Q 265.9 -67.3 263.9 -69.6 L 263.9 -69.6 L 263.9 -69.6 Q 262.2 -71.4 262.2 -73.5 L 262.2 -73.5 L 262.2 -73.5 Q 262.2 -78.3 264.5 -88.8 L 264.5 -88.8 L 269.1 -113.4 L 282.1 -114.7 L 275.9 -82.3 L 275.9 -82.3 Q 274.8 -77.6 274.8 -75.9 L 274.8 -75.9 L 274.8 -75.9 Q 274.8 -72.2 277.5 -72.1 Z M 298.2 -72.1 L 298.2 -72.1 L 298.2 -72.1 Q 296.2 -67.3 289.9 -67.3 L 289.9 -67.3 L 289.9 -67.3 Q 286.7 -67.3 284.6 -69.6 L 284.6 -69.6 L 284.6 -69.6 Q 283 -71.4 283 -73.5 L 283 -73.5 L 283 -73.5 Q 283 -78.3 285.2 -88.8 L 285.2 -88.8 L 289.9 -113.4 L 302.9 -114.7 L 296.7 -82.3 L 296.7 -82.3 Q 295.6 -77.6 295.6 -75.9 L 295.6 -75.9 L 295.6 -75.9 Q 295.6 -72.2 298.2 -72.1 Z M 329.6 -79.4 L 329.6 -79.4 L 329.6 -79.4 Q 331.2 -78.3 331.2 -75.9 L 331.2 -75.9 L 331.2 -75.9 Q 331.2 -73.5 329.9 -72 L 329.9 -72 L 329.9 -72 Q 328.7 -70.5 326.7 -69.4 L 326.7 -69.4 L 326.7 -69.4 Q 322.6 -67.3 318.2 -67.3 L 318.2 -67.3 L 318.2 -67.3 Q 313.8 -67.3 311.2 -68.3 L 311.2 -68.3 L 311.2 -68.3 Q 308.6 -69.2 306.9 -71 L 306.9 -71 L 306.9 -71 Q 303.5 -74.4 303.5 -80.6 L 303.5 -80.6 L 303.5 -80.6 Q 303.5 -90.3 308.8 -96.2 L 308.8 -96.2 L 308.8 -96.2 Q 314.4 -102.5 324.2 -102.5 L 324.2 -102.5 L 324.2 -102.5 Q 330.3 -102.5 333.3 -100 L 333.3 -100 L 333.3 -100 Q 335.5 -98 335.5 -94.9 L 335.5 -94.9 L 335.5 -94.9 Q 335.5 -83.6 316 -83.6 L 316 -83.6 L 316 -83.6 Q 315.8 -82 315.8 -80.6 L 315.8 -80.6 L 315.8 -80.6 Q 315.8 -77.6 317.1 -76.5 L 317.1 -76.5 L 317.1 -76.5 Q 318.4 -75.4 320.8 -75.4 L 320.8 -75.4 L 320.8 -75.4 Q 323.3 -75.4 325.9 -76.5 L 325.9 -76.5 L 325.9 -76.5 Q 328.5 -77.6 329.6 -79.4 Z M 316.5 -86.4 L 316.5 -86.4 L 316.5 -86.4 Q 321 -86.4 323.7 -89.2 L 323.7 -89.2 L 323.7 -89.2 Q 326.3 -91.9 326.3 -96.2 L 326.3 -96.2 L 326.3 -96.2 Q 326.3 -97.7 325.7 -98.5 L 325.7 -98.5 L 325.7 -98.5 Q 325.2 -99.3 324.1 -99.3 L 324.1 -99.3 L 324.1 -99.3 Q 323 -99.3 322.1 -98.8 L 322.1 -98.8 L 322.1 -98.8 Q 321.2 -98.4 320.2 -97 L 320.2 -97 L 320.2 -97 Q 317.8 -93.8 316.5 -86.4 Z M 357.7 -86.6 L 357.7 -86.6 L 357.7 -86.6 Q 360 -90.7 360 -94.8 L 360 -94.8 L 360 -94.8 Q 360 -97.6 358 -97.6 L 358 -97.6 L 358 -97.6 Q 356.5 -97.6 354.9 -95 L 354.9 -95 L 354.9 -95 Q 353.2 -92.3 352.7 -88.9 L 352.7 -88.9 L 349.4 -68.6 L 336.1 -67.3 L 342.7 -101.2 L 353.2 -102.5 L 352.1 -96.1 L 352.1 -96.1 Q 355.2 -102.5 362.3 -102.5 L 362.3 -102.5 L 362.3 -102.5 Q 366 -102.5 368 -100.6 L 368 -100.6 L 368 -100.6 Q 370 -98.7 370 -94.7 L 370 -94.7 L 370 -94.7 Q 370 -90.8 367.4 -88.3 L 367.4 -88.3 L 367.4 -88.3 Q 364.8 -85.8 360.4 -85.8 L 360.4 -85.8 L 360.4 -85.8 Q 358.5 -85.8 357.7 -86.6 Z M 391.4 -75.8 L 391.4 -75.8 L 391.4 -75.8 Q 388 -72.4 382 -72.4 L 382 -72.4 L 382 -72.4 Q 374.4 -72.4 372.8 -77.9 L 372.8 -77.9 L 372.8 -77.9 Q 372.2 -79.6 372.2 -81.5 L 372.2 -81.5 L 372.2 -81.5 Q 372.2 -83.3 372.6 -85.2 L 372.6 -85.2 L 375.6 -101.2 L 388.6 -102.5 L 385.1 -83.9 L 385.1 -83.9 Q 385 -83.1 384.8 -82.2 L 384.8 -82.2 L 384.8 -82.2 Q 384.6 -81.3 384.6 -80.3 L 384.6 -80.3 L 384.6 -80.3 Q 384.6 -79.4 384.9 -78.8 L 384.9 -78.8 L 384.9 -78.8 Q 385.2 -78.2 385.7 -77.8 L 385.7 -77.8 L 385.7 -77.8 Q 386.4 -77.3 387.8 -77.3 L 387.8 -77.3 L 387.8 -77.3 Q 389.2 -77.3 390.4 -79 L 390.4 -79 L 390.4 -79 Q 391.6 -80.6 392.1 -83.5 L 392.1 -83.5 L 395.7 -101.2 L 408.3 -102.5 L 403.5 -77.4 L 403.5 -77.4 Q 401.1 -65.1 396.2 -60.2 L 396.2 -60.2 L 396.2 -60.2 Q 393.7 -57.7 390.5 -56.7 L 390.5 -56.7 L 390.5 -56.7 Q 387.3 -55.7 383.1 -55.7 L 383.1 -55.7 L 383.1 -55.7 Q 376.4 -55.7 372.6 -57.8 L 372.6 -57.8 L 372.6 -57.8 Q 368.7 -60 368.7 -63.5 L 368.7 -63.5 L 368.7 -63.5 Q 368.7 -66.1 370.7 -67.6 L 370.7 -67.6 L 370.7 -67.6 Q 372.7 -69.1 375.8 -69.1 L 375.8 -69.1 L 375.8 -69.1 Q 378.4 -69.1 380.5 -68 L 380.5 -68 L 380.5 -68 Q 381.7 -67.3 382.3 -66.4 L 382.3 -66.4 L 382.3 -66.4 Q 380.8 -65.1 380.8 -63 L 380.8 -63 L 380.8 -63 Q 380.8 -60.1 383.4 -60.1 L 383.4 -60.1 L 383.4 -60.1 Q 387.6 -60.1 390 -69.9 L 390 -69.9 L 390 -69.9 Q 390.7 -72.8 391.4 -75.8 Z" fill="#eb6c6c"></path></g></g><style>text {
  font-size: 64px;
  font-family: Arial Black;
  dominant-baseline: central;
  text-anchor: middle;
}</style></svg>